<?xml version="1.0" encoding="UTF-8" standalone="no"?>
<!-- Created with Inkscape (http://www.inkscape.org/) -->

<svg
   width="16"
   height="16"
   viewBox="0 0 4.2333333 4.2333332"
   version="1.1"
   id="svg5"
   xml:space="preserve"
   xmlns="http://www.w3.org/2000/svg"
   xmlns:svg="http://www.w3.org/2000/svg"><defs
     id="defs2" /><path
     style="fill:#cfd6e8;stroke-width:0.1;fill-opacity:1;stroke:#454992;stroke-opacity:1;stroke-dasharray:none;stroke-linejoin:round;stroke-linecap:round"
     d="m 1.7911897,3.0523553 c -0.024161,-0.032712 -0.040503,-0.05106 -0.061842,-0.069433 -0.050272,-0.043287 -0.1027297,-0.0751 -0.1489282,-0.090317 -0.011531,-0.0038 -0.021458,-0.00801 -0.02206,-0.00936 -0.00195,-0.00437 0.05477,-0.096589 0.178461,-0.2901553 0.2040104,-0.3192597 0.3044304,-0.4797308 0.370272,-0.5916937 0.0449,-0.076353 0.04421,-0.075444 0.054288,-0.071447 0.019217,0.00762 0.098924,0.053174 0.1388075,0.079327 0.098052,0.064298 0.1718073,0.1282811 0.2935212,0.2546311 0.012349,0.012819 0.021282,0.024867 0.020948,0.02825 -7.418e-4,0.0075 -0.0045,0.011534 -0.079391,0.085284 C 2.4324364,2.4786966 2.2805439,2.6340169 2.1549272,2.7663647 1.9584193,2.9734026 1.834458,3.098806 1.8275988,3.0975009 1.8256312,3.0971273 1.8092504,3.0768137 1.7911893,3.052361 Z M 2.6564876,2.1762698 C 2.6056919,2.1241112 2.5520735,2.0718115 2.5229649,2.0460312 2.4581658,1.9886416 2.3490155,1.9118157 2.2651807,1.8645889 2.2409593,1.8509442 2.2210036,1.8378216 2.2208346,1.8354272 2.2202867,1.827665 2.3496917,1.6641279 2.4576414,1.5361596 2.605163,1.3612812 2.6118691,1.3738493 2.8098513,1.1462315 2.8896546,1.0544827 3.0428092,0.9212252 3.1219446,0.84101078 3.2096956,0.75206329 3.6377027,0.46164513 3.6887389,0.40847312 3.8132711,0.27872946 3.8173305,0.27546011 3.8384774,0.28786935 c 0.013438,0.007887 0.017918,0.0163096 0.01586,0.0298248 C 3.8516022,0.33565341 3.6411686,0.77520448 3.5354166,0.96674584 3.4722031,1.0812399 3.3324712,1.2972534 3.2156402,1.4788116 2.9159064,1.9446051 2.9489883,1.8749082 2.8240166,2.0366572 c -0.012704,0.016443 -0.023237,0.030919 -0.023406,0.03217 -3.21e-4,0.00237 -0.013483,0.01962 -0.071996,0.094355 -0.019235,0.024568 -0.035977,0.045116 -0.037204,0.045662 -0.00122,5.469e-4 -0.016942,-0.014112 -0.034922,-0.032574 z"
     id="path395" /><path
     d="m 0.23470009,3.8425436 c -0.013737,-0.019907 -0.013276,-0.035191 0.00144,-0.047616 0.0086,-0.00727 0.015972,-0.0091 0.051112,-0.012692 0.14725218,-0.015056 0.22522377,-0.03418 0.30700853,-0.075303 0.0403808,-0.020304 0.10221242,-0.063399 0.1345413,-0.093772 0.0566683,-0.05324 0.10602148,-0.1213087 0.15126824,-0.2086319 0.009485,-0.018309 0.0327056,-0.068395 0.0515983,-0.1113013 0.0459039,-0.1042531 0.0709138,-0.1445525 0.12162134,-0.195973 0.07202,-0.073031 0.1800924,-0.1214693 0.2884529,-0.1292851 0.040107,-0.00289 0.1321628,0.00951 0.1696475,0.022851 0.176776,0.062932 0.2989898,0.2236783 0.3075417,0.4045055 0.00194,0.040932 -0.010304,0.1302849 -0.023351,0.170424 -0.019149,0.058924 -0.05035,0.1112448 -0.091531,0.153481 C 1.5393856,3.8881167 1.2508196,3.9464008 0.76064332,3.909779 0.67993972,3.903749 0.42598801,3.875688 0.30887329,3.859858 c -0.067129,-0.00907 -0.068743,-0.00945 -0.074171,-0.01731 z"
     style="fill:#a32020;stroke-width:0.00320946;fill-opacity:1"
     id="path501" /></svg>
