<?xml version="1.0" encoding="UTF-8" standalone="no"?>
<!-- Created with Inkscape (http://www.inkscape.org/) -->

<svg
   width="16"
   height="16"
   viewBox="0 0 4.2333333 4.2333332"
   version="1.1"
   id="svg5"
   sodipodi:docname="vectorDeformInit.svg"
   inkscape:version="1.2.2 (b0a8486541, 2022-12-01)"
   xmlns:inkscape="http://www.inkscape.org/namespaces/inkscape"
   xmlns:sodipodi="http://sodipodi.sourceforge.net/DTD/sodipodi-0.dtd"
   xmlns="http://www.w3.org/2000/svg"
   xmlns:svg="http://www.w3.org/2000/svg">
  <sodipodi:namedview
     id="namedview4233"
     pagecolor="#ffffff"
     bordercolor="#666666"
     borderopacity="1.0"
     inkscape:showpageshadow="2"
     inkscape:pageopacity="0.0"
     inkscape:pagecheckerboard="0"
     inkscape:deskcolor="#d1d1d1"
     showgrid="false"
     inkscape:zoom="26.59375"
     inkscape:cx="5.0763807"
     inkscape:cy="8.9494712"
     inkscape:window-width="1920"
     inkscape:window-height="1017"
     inkscape:window-x="0"
     inkscape:window-y="26"
     inkscape:window-maximized="1"
     inkscape:current-layer="svg5" />
  <defs
     id="defs2" />
  <path
     style="font-variation-settings:normal;opacity:1;fill:#e8efff;fill-opacity:1;stroke:#2147b8;stroke-width:0.111654;stroke-linecap:round;stroke-linejoin:round;stroke-miterlimit:4;stroke-dasharray:none;stroke-dashoffset:0;stroke-opacity:1;stop-color:#000000;stop-opacity:1"
     d="M 0.94380398,0.42417713 1.0791547,0.6166985 1.2442948,0.82751207 2.3787119,0.42950086 1.8738134,1.6548087 2.1789999,1.7078295 2.3474826,1.8586834 1.2316116,2.1637217 1.089081,2.0740626 0.95445545,1.8130882 0.69464418,1.6886558 0.49257624,1.6264694 Z"
     id="use1431"
     inkscape:tile-x0="0.26958227"
     inkscape:tile-y0="0.25306035"
     sodipodi:nodetypes="ccccccccccccc" />
  <path
     style="font-variation-settings:normal;opacity:1;fill:#e8efff;fill-opacity:1;stroke:#2147b8;stroke-width:0.111654;stroke-linecap:round;stroke-linejoin:round;stroke-miterlimit:4;stroke-dasharray:none;stroke-dashoffset:0;stroke-opacity:1;stop-color:#000000;stop-opacity:1"
     d="M 2.3472778,0.4327579 2.4826285,0.62527927 2.6476636,0.8073347 3.7821857,0.43808163 3.2772872,1.6633894 3.5824737,1.7164102 3.7509564,1.8672641 2.6650588,2.1559111 2.4925548,2.0826433 2.3579279,1.8216688 2.0981166,1.6972365 1.8960486,1.63505 Z"
     id="use1437"
     inkscape:tile-x0="0.26958227"
     inkscape:tile-y0="0.25306035"
     sodipodi:nodetypes="ccccccccccccc" />
  <path
     style="font-variation-settings:normal;opacity:1;fill:#e8efff;fill-opacity:1;stroke:#2147b8;stroke-width:0.111654;stroke-linecap:round;stroke-linejoin:round;stroke-miterlimit:4;stroke-dasharray:none;stroke-dashoffset:0;stroke-opacity:1;stop-color:#000000;stop-opacity:1"
     d="M 0.90326197,1.8365605 1.0386128,2.0290819 1.2127116,2.1725897 2.3381699,1.8418841 1.8332714,3.067192 2.138458,3.1202128 2.3069407,3.2710667 1.2116964,3.6109025 1.0485387,3.4864459 0.91391235,3.2254715 0.65410107,3.1010391 0.45203327,3.0388527 Z"
     id="use1433"
     inkscape:tile-x0="0.26958227"
     inkscape:tile-y0="0.25306035"
     sodipodi:nodetypes="ccccccccccccc" />
  <path
     style="font-variation-settings:normal;opacity:1;fill:#e8efff;fill-opacity:1;stroke:#2147b8;stroke-width:0.111654;stroke-linecap:round;stroke-linejoin:round;stroke-miterlimit:4;stroke-dasharray:none;stroke-dashoffset:0;stroke-opacity:1;stop-color:#000000;stop-opacity:1"
     d="M 2.3255109,1.8236266 2.4608616,2.016148 2.6551573,2.1507075 3.7604188,1.8289502 3.2555203,3.0542581 3.5607069,3.1072789 3.7291896,3.2581328 2.6007316,3.6112642 2.4707875,3.473512 2.3361613,3.2125376 2.07635,3.0881052 1.874282,3.0259188 Z"
     id="use1439"
     inkscape:tile-x0="0.26958227"
     inkscape:tile-y0="0.25306035"
     sodipodi:nodetypes="ccccccccccccc" />
</svg>
