<?xml version="1.0" encoding="UTF-8" standalone="no"?>
<!-- Created with Inkscape (http://www.inkscape.org/) -->

<svg
   width="16"
   height="16"
   viewBox="0 0 4.2333333 4.2333332"
   version="1.1"
   id="svg5"
   xml:space="preserve"
   xmlns="http://www.w3.org/2000/svg"
   xmlns:svg="http://www.w3.org/2000/svg"><defs
     id="defs2" /><g
     id="layer1"
     style="fill:#e6e6e6;fill-opacity:1"><g
       id="g8389"
       transform="matrix(2.9456292,0,0,3.3296557,-4.5873697,-5.0412019)"><path
         style="fill:#f5e8ff;fill-opacity:0.525424;stroke:#5b427a;stroke-width:0.0264583;stroke-linecap:round;stroke-linejoin:round;stroke-dasharray:none;stroke-opacity:1;stop-color:#000000"
         d="m 2.1315378,1.8489851 c -0.01735,-0.00991 -0.054528,-0.032221 -0.076834,-0.00991 -0.022307,0.022307 -0.022307,0.059485 -0.052049,0.08427 -0.029742,0.024785 -0.1115339,0.022307 -0.1115339,0.022307"
         id="path8353" /><path
         style="fill:#f5e8ff;fill-opacity:0.525424;stroke:#5b427a;stroke-width:0.0264583;stroke-linecap:round;stroke-linejoin:round;stroke-dasharray:none;stroke-opacity:1;stop-color:#000000"
         d="m 2.0001756,2.0472677 c 0,0 -0.00744,0.027264 -0.059485,0.032221 -0.052049,0.00496 -0.071877,0.049571 -0.071877,0.049571"
         id="path8355" /><path
         style="fill:#f5e8ff;fill-opacity:0.525424;stroke:#5b427a;stroke-width:0.0264583;stroke-linecap:round;stroke-linejoin:round;stroke-dasharray:none;stroke-opacity:1;stop-color:#000000"
         d="m 1.913427,2.1935011 c 0,0 0.064442,-0.037178 0.1115339,-0.00248 0.047092,0.034699 0.024785,0.08427 0.069399,0.1040983"
         id="path8357" /><path
         style="fill:#f5e8ff;fill-opacity:0.525424;stroke:#5b427a;stroke-width:0.0264583;stroke-linecap:round;stroke-linejoin:round;stroke-dasharray:none;stroke-opacity:1;stop-color:#000000"
         d="m 1.9307767,2.2975995 c 0,0 -0.037178,0.044614 0.024785,0.064442 0.061963,0.019828 0.1462334,0.019828 0.1387978,0.052049 -0.00744,0.032221 -0.0347,0.049571 -0.0347,0.049571"
         id="path8359" /><path
         style="fill:#f5e8ff;fill-opacity:0.525424;stroke:#5b427a;stroke-width:0.0264583;stroke-linecap:round;stroke-linejoin:round;stroke-dasharray:none;stroke-opacity:1;stop-color:#000000"
         d="m 2.1117096,1.9382123 c -0.042135,0.042135 -0.024785,0.061963 0.022307,0.096663 0.047092,0.034699 0.022307,0.074356 -0.01735,0.1040983"
         id="path8361" /><path
         style="fill:#f5e8ff;fill-opacity:0.525424;stroke:#5b427a;stroke-width:0.0264583;stroke-linecap:round;stroke-linejoin:round;stroke-dasharray:none;stroke-opacity:1;stop-color:#000000"
         d="m 2.4289617,1.9059914 c 0.054528,-0.0347 0.1090554,-0.024785 0.1313622,0.039656 0.022307,0.064442 0.049571,0.079313 0.1065768,0.057006"
         id="path8363" /><path
         style="fill:#f5e8ff;fill-opacity:0.525424;stroke:#5b427a;stroke-width:0.0264583;stroke-linecap:round;stroke-linejoin:round;stroke-dasharray:none;stroke-opacity:1;stop-color:#000000"
         d="M 2.490925,2.0076112 C 2.416569,2.0100897 2.3570843,2.0596604 2.3719554,2.1141881"
         id="path8365" /><path
         style="fill:#f5e8ff;fill-opacity:0.525424;stroke:#5b427a;stroke-width:0.0264583;stroke-linecap:round;stroke-linejoin:round;stroke-dasharray:none;stroke-opacity:1;stop-color:#000000"
         d="m 2.5429742,2.1017954 c 0.071877,0.01735 0.086749,0.044614 0.079313,0.091706"
         id="path8367" /><path
         style="fill:#f5e8ff;fill-opacity:0.525424;stroke:#5b427a;stroke-width:0.0264583;stroke-linecap:round;stroke-linejoin:round;stroke-dasharray:none;stroke-opacity:1;stop-color:#000000"
         d="m 2.5057962,2.1984582 c -0.061963,-0.037178 -0.079313,-0.019828 -0.08427,0.042135 -0.00496,0.061963 -0.019828,0.079313 -0.089227,0.064442"
         id="path8369" /><path
         style="fill:#f5e8ff;fill-opacity:0.525424;stroke:#5b427a;stroke-width:0.0264583;stroke-linecap:round;stroke-linejoin:round;stroke-dasharray:none;stroke-opacity:1;stop-color:#000000"
         d="M 2.5082747,2.337256 C 2.4264827,2.327346 2.4041764,2.384348 2.4066549,2.419048"
         id="path8371" /><path
         style="fill:#f5e8ff;fill-opacity:0.525424;stroke:#5b427a;stroke-width:0.0264583;stroke-linecap:round;stroke-linejoin:round;stroke-dasharray:none;stroke-opacity:1;stop-color:#000000"
         d="m 2.4686182,1.7448868 c 0,0 -0.096663,-0.1065769 -0.1635831,-0.019828 -0.06692,0.086749 -0.00248,0.148712 -0.012393,0.2081967 -0.00991,0.059485 -0.049571,0.061963 -0.052049,0.1214481 -0.00248,0.059485 0.042135,0.071877 0.029742,0.116491 -0.012392,0.044614 -0.047092,0.034699 -0.054528,0.091706 -0.00744,0.057006 0.059485,0.074356 0.039656,0.1288837 -0.019828,0.054528 -0.096663,0.1090555 -0.019828,0.1586261 0.076834,0.049571 0.1586261,0.00248 0.1660617,-0.029742 0.00744,-0.032221 0.071877,0.044614 0.1189695,0.00744 0.047092,-0.037178 0.034699,-0.1016199 0.034699,-0.1016199 0,0 0.086749,0.0347 0.1264051,-0.01735 0.039656,-0.052049 -0.00991,-0.1214481 -0.00991,-0.1214481 0,0 0.089227,0.014871 0.121448,-0.052049 0.032221,-0.06692 -0.014872,-0.096663 -0.014872,-0.096663 0,0 0.1140124,-0.037178 0.091706,-0.1140125 -0.022307,-0.076834 -0.1387978,-0.069399 -0.1387978,-0.069399 0,0 0.1016198,-0.069399 0.052049,-0.1264051 -0.049569,-0.057006 -0.1611035,-0.042135 -0.1611035,-0.042135 0,0 0.01735,-0.071877 -0.037178,-0.076834 -0.054528,-0.00496 -0.116491,0.034699 -0.116491,0.034699 z"
         id="path8373" /><path
         style="fill:#f5e8ff;fill-opacity:0.525424;stroke:#5b427a;stroke-width:0.0264583;stroke-linecap:round;stroke-linejoin:round;stroke-dasharray:none;stroke-opacity:1;stop-color:#000000"
         d="m 2.2802498,1.7448868 c 0,0 -0.014871,-0.044614 -0.064442,-0.054528 -0.049571,-0.00991 -0.096663,0.022307 -0.096663,0.022307 0,0 -0.059485,-0.06692 -0.1264052,-0.039656 -0.06692,0.027264 -0.071877,0.096663 -0.071877,0.096663 0,0 -0.096663,-0.019828 -0.1387978,0.044614 -0.042135,0.064442 -0.012393,0.148712 -0.012393,0.148712 0,0 -0.1065769,-0.00991 -0.1140125,0.08427 -0.00744,0.094184 0.08427,0.1140125 0.08427,0.1140125 0,0 -0.049571,0.022307 -0.039656,0.079313 0.00991,0.057006 0.1189695,0.091706 0.1189695,0.091706 0,0 -0.064442,0.061963 0.00496,0.1040983 0.069399,0.042135 0.1437549,0.044614 0.1437549,0.044614 0,0 -0.024785,0.071878 0.076835,0.074356 0.1016198,0.00248 0.1635831,-0.037178 0.1734972,-0.1288837 0.00991,-0.091706 -0.032221,-0.091706 -0.029742,-0.1487119 0.00248,-0.057006 0.081792,-0.052049 0.08427,-0.1115339 0.00248,-0.059485 -0.039656,-0.029742 -0.029742,-0.1040984 0.00991,-0.074356 0.049571,-0.059485 0.054528,-0.1140125 0.00496,-0.054528 -0.027264,-0.1710187 -0.01735,-0.2032396 z"
         id="path8375" /></g></g></svg>
